# xmcd CD database file
#
# Track frame offsets:
#	182
#	12770
#	26442
#	42880
#	55090
#	68350
#	86120
#	98607
#	109732
#	125455
#	138002
#	156777
#	170757
#	183985
#
# Disc length: 2618 seconds
#
# Revision: 0
# Processed by: cddbd v1.5.2PL0 Copyright (c) Steve Scherf et al.
# Submitted via: ACXtractor (MTCDDB.DLL V2003.12.21)
#
DISCID=a60a380e
DTITLE=Lindsay Butler - 25th Anniversary
DYEAR=2000
DGENRE=Comedy
TTITLE0=Joey's Song
TTITLE1=Spanish Harlem
TTITLE2=I Still Call Australia Home
TTITLE3=Desert Dreaming
TTITLE4=But's Blues
TTITLE5=The Rose
TTITLE6=Broken String
TTITLE7=Wheels
TTITLE8=Light Fingers
TTITLE9=La Paloma Blanca
TTITLE10=Lady
TTITLE11=Hoedown
TTITLE12=Little White Fender
TTITLE13=Silver Bell
EXTD=ID3G:  57 YEAR: 2000
EXTT0=
EXTT1=
EXTT2=
EXTT3=
EXTT4=
EXTT5=
EXTT6=
EXTT7=
EXTT8=
EXTT9=
EXTT10=
EXTT11=
EXTT12=
EXTT13=
PLAYORDER=
